<?xml version="1.0" encoding="UTF-8"?>
<svg version="1.1" xmlns="http://www.w3.org/2000/svg" width="1024" height="1024">
<path d="M0 0 C0.56380371 0.46229004 1.12760742 0.92458008 1.70849609 1.40087891 C10.9854754 9.02803918 19.23565768 16.82765295 26.765625 26.21484375 C28.10975849 27.89031084 29.46967033 29.55354003 30.859375 31.19140625 C42.77566372 45.42475111 52.37102958 61.6180304 61 78 C61.72316406 79.36608398 61.72316406 79.36608398 62.4609375 80.75976562 C68.11205031 91.45241689 73.66124792 102.19450632 79.03149414 113.03100586 C80.84300519 116.68584366 82.66336925 120.33621186 84.48828125 123.984375 C84.82509415 124.65792526 85.16190704 125.33147552 85.50892639 126.0254364 C88.073103 131.15146928 90.64209146 136.27508088 93.21206665 141.39820862 C95.26356307 145.4885991 97.31338962 149.57982537 99.36303711 153.67114258 C100.41016811 155.76037107 101.45801633 157.84924025 102.5065918 159.93774414 C107.81290032 170.5080567 113.09706005 181.08724249 118.19140625 191.76171875 C118.75310768 192.93103691 118.75310768 192.93103691 119.32615662 194.12397766 C119.66655472 194.84320908 120.00695282 195.56244049 120.35766602 196.3034668 C120.65270523 196.92456833 120.94774445 197.54566986 121.25172424 198.18559265 C122.0409706 200.09934488 122.54682752 201.9825376 123 204 C119.00633719 204 116.26536038 202.24635649 112.8125 200.4375 C90.36208928 188.99805865 67.01060253 181.30283097 42.70703125 174.76171875 C41.59021973 174.45927246 40.4734082 174.15682617 39.32275391 173.84521484 C37.09885803 173.27951848 34.86006778 172.76958293 32.61083984 172.31494141 C24.63492259 170.65646278 24.63492259 170.65646278 21.58203125 167.5 C21.05996094 166.345 20.53789063 165.19 20 164 C19.60345215 163.20335937 19.2069043 162.40671875 18.79833984 161.5859375 C17.38369956 158.74334508 16.03240571 155.87619464 14.6875 153 C13.7143668 150.94361974 12.74040943 148.88762929 11.765625 146.83203125 C11.29447266 145.8363916 10.82332031 144.84075195 10.33789062 143.81494141 C8.56780167 140.09064841 6.76914233 136.38187195 4.9375 132.6875 C4.41027344 131.61886719 3.88304687 130.55023438 3.33984375 129.44921875 C2.10276935 126.91544424 2.10276935 126.91544424 0 125 C-1.16088057 122.55322094 -2.2750675 120.09887449 -3.375 117.625 C-17.19673193 87.08212275 -17.19673193 87.08212275 -40 64 C-40 63.34 -40 62.68 -40 62 C-40.60070312 61.72414063 -41.20140625 61.44828125 -41.8203125 61.1640625 C-44 60 -44 60 -46.875 57.375 C-63.37157221 42.98886347 -85.53817808 37.59697998 -107 39 C-133.27603564 42.46378225 -153.8572316 55.38675614 -169.84545898 76.18798828 C-181.97729109 92.58919558 -191.24972587 110.67165734 -200.40234375 128.83105469 C-201.71624346 131.43716995 -203.04089943 134.03701362 -204.375 136.6328125 C-231.90963209 190.4708805 -249.10267563 247.02689299 -230.7277832 306.80224609 C-223.72499111 328.4421367 -213.392039 346.49533586 -199 364 C-198.33742188 364.85207031 -197.67484375 365.70414063 -196.9921875 366.58203125 C-195.23973812 368.70902373 -193.53931327 370.42161369 -191.4375 372.1875 C-189.07443547 374.19371132 -186.77249895 376.21671901 -184.52734375 378.35546875 C-177.57589987 384.95882854 -170.23632833 390.18416538 -162 395 C-161.06124023 395.55469971 -161.06124023 395.55469971 -160.10351562 396.12060547 C-144.10257058 405.44370414 -126.5062696 411.47159678 -108.88305664 416.97338867 C-100.09449777 419.77397381 -91.12374154 423.49212656 -86.6875 432.0625 C-82.74140795 440.4708396 -83.60424723 447.36610948 -86.6875 455.94140625 C-91.55541581 467.28538864 -100.03433179 474.72208058 -111.375 479.4375 C-133.68078362 487.75554306 -162.35680433 479.1360508 -183.12573242 469.78686523 C-185.09253417 468.87499543 -187.04848733 467.94412087 -189 467 C-189.61552734 466.70254883 -190.23105469 466.40509766 -190.86523438 466.09863281 C-209.11187917 457.13043598 -225.64189073 445.38224054 -240 431 C-240.94875 430.236875 -241.8975 429.47375 -242.875 428.6875 C-246.71880825 425.52660185 -249.80618166 421.79976016 -253 418 C-253.77601563 417.10023438 -254.55203125 416.20046875 -255.3515625 415.2734375 C-285.59817841 379.78282626 -305.16689538 334.77922622 -313 289 C-313.32097656 287.20949219 -313.32097656 287.20949219 -313.6484375 285.3828125 C-326.99917332 203.15001941 -287.26185755 111.12812201 -240.45605469 44.8125 C-234.29738251 36.28688986 -227.77884993 28.04003131 -221 20 C-220.39671875 19.27296875 -219.7934375 18.5459375 -219.171875 17.796875 C-215.74431527 13.75173694 -212.12641117 10.19203272 -208.078125 6.76953125 C-206.68906962 5.58674537 -205.32405863 4.37514722 -203.984375 3.13671875 C-148.00611316 -48.59134173 -57.87509828 -47.89724095 0 0 Z " fill="#FEFEFE" transform="translate(610,220)"/>
<path d="M0 0 C0.95261719 0.48726563 1.90523437 0.97453125 2.88671875 1.4765625 C22.78384127 11.87535062 40.22886579 26.15447365 56 42 C56.85078125 42.82757813 57.7015625 43.65515625 58.578125 44.5078125 C64.86961268 50.67052704 70.57569729 57.04576576 76 64 C76.48726562 64.61617188 76.97453125 65.23234375 77.4765625 65.8671875 C85.63366639 76.1941614 93.07906766 86.80870516 100 98 C100.37543945 98.60457031 100.75087891 99.20914063 101.13769531 99.83203125 C103.82643314 104.18224025 106.42413167 108.58223663 109 113 C109.47663086 113.81114258 109.95326172 114.62228516 110.44433594 115.45800781 C126.54706963 142.95964825 141.18918613 171.42924715 147 203 C147.31904297 204.64548828 147.31904297 204.64548828 147.64453125 206.32421875 C148.95079787 213.51338397 149.61856319 220.70618389 150 228 C150.06380859 229.175625 150.06380859 229.175625 150.12890625 230.375 C151.05349428 265.8791803 137.69666038 301.93922707 115 329 C114.51208984 329.58797363 114.02417969 330.17594727 113.52148438 330.78173828 C82.86288239 367.62465166 41.58941255 386.62560085 -5.796875 391.375 C-58.15120688 396.08950904 -111.24472146 394.57648635 -163.75 393.5625 C-164.78050476 393.54303314 -165.81100952 393.52356628 -166.8727417 393.50350952 C-176.94516044 393.30426339 -186.97328005 393.06237347 -197 392 C-193.31585713 388.85009254 -189.48864622 386.55331149 -185.1875 384.375 C-156.73636527 369.47501983 -131.32372945 348.57206947 -108.25390625 326.35546875 C-107.38636719 325.53691406 -106.51882813 324.71835937 -105.625 323.875 C-104.87476563 323.15054687 -104.12453125 322.42609375 -103.3515625 321.6796875 C-97.81010532 317.7215038 -90.07665036 318.90197284 -83.55078125 318.97265625 C-81.24707369 318.98712129 -78.9433625 319.00101612 -76.63964844 319.0144043 C-74.84231262 319.02689713 -74.84231262 319.02689713 -73.00866699 319.03964233 C-43.44685255 319.29380546 -43.44685255 319.29380546 -14 317 C-13.1637207 316.89816406 -12.32744141 316.79632812 -11.46582031 316.69140625 C14.95888501 313.28989472 41.18272725 303.80756164 58.17578125 282.23828125 C66.86802199 270.36132037 72.48131316 257.5479352 75 243 C75.19529297 241.91332031 75.19529297 241.91332031 75.39453125 240.8046875 C79.04966247 216.72955654 69.15115144 193.74471323 58 173 C57.61972656 172.28489258 57.23945312 171.56978516 56.84765625 170.83300781 C43.16143585 145.1993901 26.50916477 118.38196859 5.2421875 98.34375 C4 97 4 97 4 95 C3.42507813 94.74863281 2.85015625 94.49726562 2.2578125 94.23828125 C-0.29624115 92.83752864 -2.02955014 91.21159942 -4.125 89.1875 C-21.48784057 73.3961866 -41.94315691 61.87744396 -64 54 C-64.680625 53.75443359 -65.36125 53.50886719 -66.0625 53.25585938 C-84.28074802 46.73755506 -102.78053774 42.27873829 -122 40 C-122.7636084 39.90428711 -123.5272168 39.80857422 -124.31396484 39.70996094 C-133.09406475 38.75100698 -141.90842862 38.77848282 -150.73046875 38.75976562 C-153.46646218 38.75011826 -156.2016837 38.71903679 -158.9375 38.6875 C-192.4901525 38.48576397 -226.68968402 47.8209145 -251.36328125 71.6015625 C-253 73 -253 73 -255 73 C-255.33837891 73.79277344 -255.33837891 73.79277344 -255.68359375 74.6015625 C-260.86099266 84.03456823 -269.6531653 93.5510551 -280 97 C-288.08469178 97.72184748 -295.0503125 95.79035477 -301.71484375 91.08203125 C-311.79376885 82.51873399 -316.75256298 72.68984225 -318.28125 59.58984375 C-319.02121377 42.1081996 -306.3227613 27.09246121 -295.21875 14.8984375 C-283.10684753 2.05923231 -268.68749689 -8.03307212 -253 -16 C-252.38447266 -16.31662598 -251.76894531 -16.63325195 -251.13476562 -16.95947266 C-241.11957062 -22.05487606 -230.75517939 -25.78403768 -220 -29 C-219.34451172 -29.19722656 -218.68902344 -29.39445312 -218.01367188 -29.59765625 C-205.90296247 -33.15013101 -193.51712997 -34.63772182 -181 -36 C-179.78957031 -36.1340625 -178.57914063 -36.268125 -177.33203125 -36.40625 C-117.40277724 -41.76638204 -53.00135757 -28.25916387 0 0 Z " fill="#FEFEFE" transform="translate(710,440)"/>
<path d="M0 0 C0.99 0.99 0.99 0.99 2 2 C1.79296875 4.6171875 1.79296875 4.6171875 1.1875 7.875 C-4.04445274 38.86166206 -2.21389166 73.87409265 10.92578125 102.73046875 C12.39606232 107.20546969 11.71152027 110.32583467 9.88354492 114.62695312 C9.18902222 115.94083008 9.18902222 115.94083008 8.48046875 117.28125 C7.95888184 118.27656738 7.43729492 119.27188477 6.89990234 120.29736328 C6.33480957 121.3542334 5.7697168 122.41110352 5.1875 123.5 C4.60436035 124.60714355 4.0212207 125.71428711 3.42041016 126.85498047 C0.12625972 133.08636312 -3.2388839 139.27613892 -6.64648438 145.44604492 C-24.54047722 177.86856532 -43.20021361 213.35925362 -32.37744141 251.17529297 C-25.96263901 271.58772683 -13.32795274 286.91679628 5.5703125 296.94140625 C34.51005092 311.53518122 68.56316734 312.38004882 100.30102539 312.26074219 C103.69630637 312.24997207 107.09106242 312.26074583 110.48632812 312.2734375 C127.78949867 312.28502132 145.02588026 311.48652644 162.0625 308.25 C163.41154419 307.99621582 163.41154419 307.99621582 164.7878418 307.73730469 C190.06691501 302.7562501 215.49705516 292.9198341 234.1796875 274.6171875 C236 273 236 273 238 273 C238.33 272.01 238.66 271.02 239 270 C239.66 270 240.32 270 241 270 C241 269.34 241 268.68 241 268 C242.41077047 266.83009278 243.82435586 265.66345441 245.25 264.51171875 C248.54038319 261.66935648 251.22156462 258.33311395 254 255 C254.4419873 254.48099121 254.88397461 253.96198242 255.33935547 253.42724609 C288.88301377 213.97526646 313.16133417 168.87905829 310 116 C309.50999319 111.48129463 308.78527637 107.016263 308.01293945 102.53857422 C306.60233509 94.21418102 306.34644189 86.40422492 310.64453125 78.84765625 C315.84718073 71.75586027 322.20650367 68.06700364 330.71484375 66.5 C341.41329332 65.15039269 351.6631631 67.1799825 360.71875 73.1484375 C374.56495322 84.38662299 380.15603408 103.89103781 382 121 C387.5811904 179.77978411 362.86239524 234.03992911 328 280 C327.5246582 280.63228516 327.04931641 281.26457031 326.55957031 281.91601562 C320.67404076 289.71671049 314.39724782 297.01208762 307.6953125 304.12109375 C305.60631811 306.35238196 303.59646357 308.60443633 301.625 310.9375 C293.85206824 319.91361285 285.16960609 328.45970408 276 336 C275.29359375 336.59554688 274.5871875 337.19109375 273.859375 337.8046875 C245.8298008 360.91516424 213.56280947 375.12671295 178 382 C177.27490234 382.14034668 176.54980469 382.28069336 175.80273438 382.42529297 C107.27997069 395.37627836 13.80686253 396.40562117 -46.18359375 355.84765625 C-49.19095068 353.6390661 -52.10565169 351.35472405 -55 349 C-55.55929199 348.54753906 -56.11858398 348.09507812 -56.69482422 347.62890625 C-86.7192948 323.17863393 -108.21045518 287.81758996 -113 249 C-113.11085937 248.19433594 -113.22171875 247.38867188 -113.3359375 246.55859375 C-119.68054962 191.77201069 -92.9957955 142.29495933 -65.02636719 97.26513672 C-63.1463019 94.23573995 -61.27781332 91.19960839 -59.4140625 88.16015625 C-52.76627666 77.33725437 -45.97164133 66.61715085 -39 56 C-38.36191406 55.02804687 -37.72382813 54.05609375 -37.06640625 53.0546875 C-35.47361141 50.6500811 -33.87053953 48.25292259 -32.25683594 45.86230469 C-31.31066617 44.46032664 -30.36631371 43.05712188 -29.42285156 41.65332031 C-20.9941437 29.12491889 -12.33906304 16.81249522 -3.27416992 4.7355957 C-2.13848043 3.1886295 -1.06451795 1.59677693 0 0 Z " fill="#FEFEFE" transform="translate(276,446)"/>
<path d="M0 0 C0.33 0 0.66 0 1 0 C1 1.65 1 3.3 1 5 C0.67 5 0.34 5 0 5 C0 3.35 0 1.7 0 0 Z " fill="#F9FAFB" transform="translate(162,696)"/>
<path d="" fill="#FEFEFF" transform="translate(0,0)"/>
<path d="M0 0 C2 1 2 1 2 1 Z " fill="#F8F8F9" transform="translate(307,831)"/>
<path d="M0 0 C2 1 2 1 2 1 Z " fill="#FDFDFD" transform="translate(484,703)"/>
<path d="" fill="#F8F8FA" transform="translate(0,0)"/>
<path d="" fill="#FEFFFF" transform="translate(0,0)"/>
<path d="" fill="#FEFEFE" transform="translate(0,0)"/>
<path d="" fill="#FDFEFF" transform="translate(0,0)"/>
<path d="" fill="#FFFFFF" transform="translate(0,0)"/>
<path d="" fill="#FEFFFF" transform="translate(0,0)"/>
<path d="" fill="#FEFEFF" transform="translate(0,0)"/>
<path d="M0 0 C2 1 2 1 2 1 Z " fill="#FCFCFE" transform="translate(541,479)"/>
<path d="M0 0 C2 1 2 1 2 1 Z " fill="#FEFFFE" transform="translate(685,427)"/>
<path d="" fill="#FFFFFE" transform="translate(0,0)"/>
<path d="" fill="#F8F9FA" transform="translate(0,0)"/>
<path d="" fill="#F9F8F8" transform="translate(0,0)"/>
<path d="" fill="#F7F9FA" transform="translate(0,0)"/>
<path d="" fill="#F8F9F9" transform="translate(0,0)"/>
<path d="" fill="#F6F7F7" transform="translate(0,0)"/>
<path d="" fill="#F8F8F8" transform="translate(0,0)"/>
<path d="" fill="#F9FAF9" transform="translate(0,0)"/>
<path d="" fill="#F8FAF8" transform="translate(0,0)"/>
<path d="" fill="#FBFCFC" transform="translate(0,0)"/>
<path d="" fill="#FBFCFC" transform="translate(0,0)"/>
<path d="" fill="#F7F8F9" transform="translate(0,0)"/>
<path d="" fill="#FCFDFD" transform="translate(0,0)"/>
<path d="" fill="#F6F7FA" transform="translate(0,0)"/>
<path d="" fill="#FFFEFD" transform="translate(0,0)"/>
<path d="" fill="#FCFDFF" transform="translate(0,0)"/>
<path d="" fill="#FEFEFE" transform="translate(0,0)"/>
<path d="" fill="#FEFEFE" transform="translate(0,0)"/>
<path d="" fill="#FFFFFF" transform="translate(0,0)"/>
<path d="" fill="#FDFEFD" transform="translate(0,0)"/>
<path d="" fill="#FDFFFE" transform="translate(0,0)"/>
<path d="" fill="#FFFDFE" transform="translate(0,0)"/>
<path d="" fill="#FDFEFE" transform="translate(0,0)"/>
<path d="" fill="#FAFAF8" transform="translate(0,0)"/>
<path d="" fill="#FAF9F9" transform="translate(0,0)"/>
<path d="" fill="#FFFFFE" transform="translate(0,0)"/>
<path d="" fill="#FFFFFF" transform="translate(0,0)"/>
<path d="" fill="#F7F9F9" transform="translate(0,0)"/>
<path d="" fill="#F9F9F9" transform="translate(0,0)"/>
<path d="" fill="#FFFFFF" transform="translate(0,0)"/>
<path d="" fill="#FFFDFF" transform="translate(0,0)"/>
<path d="" fill="#FDFCFE" transform="translate(0,0)"/>
<path d="" fill="#FDFDFD" transform="translate(0,0)"/>
<path d="" fill="#F7F9F8" transform="translate(0,0)"/>
<path d="" fill="#FDFDFE" transform="translate(0,0)"/>
<path d="" fill="#FDFEFE" transform="translate(0,0)"/>
<path d="" fill="#FFFEFD" transform="translate(0,0)"/>
<path d="" fill="#FFFFFF" transform="translate(0,0)"/>
<path d="" fill="#FFFFFF" transform="translate(0,0)"/>
<path d="" fill="#F8F8F8" transform="translate(0,0)"/>
<path d="" fill="#F7F9F9" transform="translate(0,0)"/>
<path d="" fill="#FFFEFF" transform="translate(0,0)"/>
<path d="" fill="#F7F8F8" transform="translate(0,0)"/>
<path d="" fill="#F9FAFB" transform="translate(0,0)"/>
<path d="" fill="#FEFDFD" transform="translate(0,0)"/>
<path d="" fill="#FFFEFF" transform="translate(0,0)"/>
<path d="" fill="#FEFFFF" transform="translate(0,0)"/>
<path d="" fill="#FAFAFC" transform="translate(0,0)"/>
<path d="" fill="#FFFFFF" transform="translate(0,0)"/>
<path d="" fill="#F9FAFB" transform="translate(0,0)"/>
<path d="" fill="#FEFEFF" transform="translate(0,0)"/>
<path d="" fill="#FFFFFF" transform="translate(0,0)"/>
<path d="" fill="#F9FAF9" transform="translate(0,0)"/>
<path d="" fill="#FFFFFF" transform="translate(0,0)"/>
<path d="" fill="#FFFEFE" transform="translate(0,0)"/>
<path d="" fill="#FFFEFF" transform="translate(0,0)"/>
<path d="" fill="#FAFBFD" transform="translate(0,0)"/>
<path d="" fill="#FFFFFF" transform="translate(0,0)"/>
<path d="" fill="#FFFFFF" transform="translate(0,0)"/>
<path d="" fill="#FEFFFF" transform="translate(0,0)"/>
<path d="" fill="#F8F9F9" transform="translate(0,0)"/>
<path d="" fill="#FEFFFF" transform="translate(0,0)"/>
<path d="" fill="#F7F8F8" transform="translate(0,0)"/>
<path d="" fill="#FEFEFD" transform="translate(0,0)"/>
<path d="" fill="#FFFFFE" transform="translate(0,0)"/>
<path d="" fill="#FEFFFF" transform="translate(0,0)"/>
<path d="" fill="#FFFFFF" transform="translate(0,0)"/>
<path d="" fill="#F8F8F8" transform="translate(0,0)"/>
<path d="" fill="#FFFFFF" transform="translate(0,0)"/>
<path d="" fill="#FEFFFF" transform="translate(0,0)"/>
<path d="" fill="#F9FAFB" transform="translate(0,0)"/>
<path d="" fill="#FFFFFF" transform="translate(0,0)"/>
<path d="" fill="#FAFBFC" transform="translate(0,0)"/>
<path d="" fill="#FBFCFB" transform="translate(0,0)"/>
<path d="" fill="#FEFFFF" transform="translate(0,0)"/>
<path d="" fill="#FFFFFF" transform="translate(0,0)"/>
<path d="" fill="#FFFFFE" transform="translate(0,0)"/>
<path d="" fill="#FDFDFD" transform="translate(0,0)"/>
<path d="" fill="#FEFFFF" transform="translate(0,0)"/>
<path d="" fill="#FFFFFE" transform="translate(0,0)"/>
<path d="" fill="#FEFFFF" transform="translate(0,0)"/>
<path d="" fill="#FFFEFE" transform="translate(0,0)"/>
<path d="" fill="#FFFFFF" transform="translate(0,0)"/>
<path d="" fill="#FEFDFC" transform="translate(0,0)"/>
<path d="" fill="#F9F9F9" transform="translate(0,0)"/>
<path d="" fill="#FFFEFF" transform="translate(0,0)"/>
<path d="" fill="#FFFDFF" transform="translate(0,0)"/>
<path d="" fill="#FDFFFD" transform="translate(0,0)"/>
<path d="" fill="#FEFDFE" transform="translate(0,0)"/>
<path d="" fill="#F9F9F9" transform="translate(0,0)"/>
<path d="" fill="#FFFFFE" transform="translate(0,0)"/>
<path d="" fill="#FCFBFD" transform="translate(0,0)"/>
<path d="" fill="#FFFEFF" transform="translate(0,0)"/>
<path d="" fill="#FEFEFF" transform="translate(0,0)"/>
<path d="" fill="#FFFFFF" transform="translate(0,0)"/>
<path d="" fill="#FEFFFE" transform="translate(0,0)"/>
<path d="" fill="#FEFDFF" transform="translate(0,0)"/>
<path d="" fill="#F9FAF9" transform="translate(0,0)"/>
<path d="" fill="#FEFEFE" transform="translate(0,0)"/>
<path d="" fill="#FDFFFE" transform="translate(0,0)"/>
<path d="" fill="#FDFFFE" transform="translate(0,0)"/>
<path d="" fill="#FFFFFF" transform="translate(0,0)"/>
<path d="" fill="#F9FBFA" transform="translate(0,0)"/>
<path d="" fill="#FFFEFF" transform="translate(0,0)"/>
<path d="" fill="#FEFFFE" transform="translate(0,0)"/>
<path d="" fill="#FFFFFF" transform="translate(0,0)"/>
<path d="" fill="#FFFFFF" transform="translate(0,0)"/>
<path d="" fill="#FEFFFF" transform="translate(0,0)"/>
<path d="" fill="#FFFDFF" transform="translate(0,0)"/>
<path d="" fill="#FFFFFF" transform="translate(0,0)"/>
<path d="" fill="#FDFEFF" transform="translate(0,0)"/>
<path d="" fill="#FFFFFF" transform="translate(0,0)"/>
<path d="" fill="#F8F9F9" transform="translate(0,0)"/>
<path d="" fill="#FEFEFE" transform="translate(0,0)"/>
<path d="" fill="#FEFFFF" transform="translate(0,0)"/>
<path d="" fill="#FDFCFD" transform="translate(0,0)"/>
<path d="" fill="#F9FAF8" transform="translate(0,0)"/>
<path d="" fill="#F7F8F7" transform="translate(0,0)"/>
<path d="" fill="#FFFDFF" transform="translate(0,0)"/>
<path d="" fill="#FEFFFF" transform="translate(0,0)"/>
<path d="" fill="#F5F9F6" transform="translate(0,0)"/>
<path d="" fill="#F8FAFA" transform="translate(0,0)"/>
<path d="" fill="#F6F7F9" transform="translate(0,0)"/>
<path d="" fill="#F7F8F8" transform="translate(0,0)"/>
</svg>
